# Blender v2.83.1 OBJ File: ''
# www.blender.org
mtllib spike.mtl
o Cube
v 3.005201 2.988412 -2.997493
v 1.000000 -1.000000 -1.000000
v 1.000867 0.998069 0.333751
v 1.000000 -1.000000 1.000000
v -0.332466 0.998069 -0.999582
v -1.000000 -1.000000 -1.000000
v -1.000000 1.000000 1.000000
v -1.000000 -1.000000 1.000000
vt 0.625000 0.500000
vt 0.875000 0.500000
vt 0.875000 0.750000
vt 0.625000 0.750000
vt 0.375000 0.750000
vt 0.625000 1.000000
vt 0.375000 1.000000
vt 0.375000 0.000000
vt 0.625000 0.000000
vt 0.625000 0.250000
vt 0.375000 0.250000
vt 0.125000 0.500000
vt 0.375000 0.500000
vt 0.125000 0.750000
vn -0.2344 0.9434 0.2344
vn 0.1622 0.1622 0.9733
vn -0.9732 0.1625 -0.1625
vn 0.0000 -1.0000 0.0000
vn 0.9403 -0.1892 0.2829
vn -0.2821 -0.1879 -0.9408
usemtl Material
s off
f 1/1/1 5/2/1 7/3/1 3/4/1
f 4/5/2 3/4/2 7/6/2 8/7/2
f 8/8/3 7/9/3 5/10/3 6/11/3
f 6/12/4 2/13/4 4/5/4 8/14/4
f 2/13/5 1/1/5 3/4/5 4/5/5
f 6/11/6 5/10/6 1/1/6 2/13/6
